<svg xmlns="http://www.w3.org/2000/svg" width="115" height="24" viewBox="0 0 115 24" fill="none">
<path d="M18.7358 21.6634C13.4007 21.6634 9.07687 17.3373 9.07687 12.0011C9.07687 6.66468 13.4007 2.34277 18.7358 2.34277C20.6163 2.34277 22.372 2.87908 23.8551 3.8087L18.7358 12.0011L28.3734 6.43633C27.3263 4.76801 25.8245 3.33048 24.0086 2.23963C21.6978 0.856179 18.4834 0 14.929 0C9.85875 0 5.41061 1.84246 2.93 4.60162C1.09342 6.6413 0 9.2084 0 12.001C0 14.7956 1.09342 17.3646 2.93 19.4057C5.41706 22.1683 9.79894 24 14.7855 24C19.7714 24 24.152 22.1668 26.6407 19.4057C26.7769 19.2536 26.9089 19.1001 27.0337 18.9409L26.6579 17.5324C24.9094 20.0282 22.0134 21.6634 18.7358 21.6634Z" fill="white"/>
<path d="M50.6879 23.4191L46.643 8.32945C45.9932 5.89101 43.7728 4.09875 41.1292 4.09875C40.4436 4.09875 39.7867 4.22125 39.1771 4.443L30.469 7.60953H39.4252L40.9557 13.3252C39.4711 12.0475 37.5376 11.2701 35.4204 11.2701C31.2163 11.2701 27.8125 14.0873 27.8125 17.5625C27.8125 21.038 31.2163 23.8594 35.4204 23.8594C38.447 23.8594 41.1235 22.3777 42.7745 20.1014L43.6623 23.4191H50.6879ZM38.3494 21.0753C36.4101 21.0753 34.8381 19.5047 34.8381 17.5625C34.8381 15.6232 36.4101 14.0512 38.3494 14.0512C40.2887 14.0512 41.8622 15.6232 41.8622 17.5625C41.8622 19.5047 40.2887 21.0753 38.3494 21.0753Z" fill="white"/>
<path d="M67.1792 4.10132C66.6485 4.10132 66.1465 4.21865 65.6989 4.42879L60.1077 7.03447C59.8309 5.37002 58.3851 4.10132 56.6409 4.10132C56.113 4.10132 55.6095 4.21865 55.1563 4.42879L48.3301 7.60951H53.1295V23.4192H60.1551V9.36835C60.1551 8.39885 60.9397 7.60966 61.9122 7.60966C62.8789 7.60966 63.6693 8.39885 63.6693 9.36835V23.4192H70.692V7.60951C70.692 5.67067 69.1185 4.10146 67.1792 4.10146" fill="white"/>
<path d="M93.5231 14.051C93.5231 19.5462 89.0693 24 83.5757 24C78.0777 24 73.6211 19.5462 73.6211 14.051C73.6211 8.55721 78.0777 4.10132 83.5757 4.10132C89.0693 4.10132 93.5231 8.55735 93.5231 14.051ZM83.9873 7.12097C83.6746 5.95023 82.4712 5.25527 81.3007 5.56998C80.1317 5.88339 79.4332 7.08754 79.7473 8.25814L83.1597 20.9806C83.4753 22.1525 84.6758 22.8467 85.8463 22.5369C87.0167 22.2199 87.7124 21.0165 87.3983 19.846L83.9873 7.12097Z" fill="white"/>
<path d="M111.239 4.10132C110.707 4.10132 110.202 4.21865 109.747 4.42879L104.162 7.03447C103.886 5.37002 102.44 4.10132 100.696 4.10132C100.168 4.10132 99.6647 4.21865 99.21 4.42879L92.3867 7.60951H97.1847V23.4192H104.209V9.36835C104.209 8.39885 104.995 7.60966 105.967 7.60966C106.937 7.60966 107.722 8.39885 107.722 9.36835V23.4192H114.75V7.60951C114.75 5.67067 113.175 4.10146 111.239 4.10146" fill="white"/>
</svg>